<svg width="16" height="21" viewBox="0 0 16 21" fill="none" xmlns="http://www.w3.org/2000/svg">
<path d="M5.86257 9.83629C5.28047 9.26959 4.98942 8.58145 4.98942 7.77188C4.98942 6.96231 5.28047 6.27417 5.86257 5.70747C6.44467 5.14077 7.1515 4.85742 7.98307 4.85742C8.81464 4.85742 9.52148 5.14077 10.1036 5.70747C10.6857 6.27417 10.9767 6.96231 10.9767 7.77188C10.9767 8.58145 10.6857 9.26959 10.1036 9.83629C9.52148 10.403 8.81464 10.6863 7.98307 10.6863C7.1515 10.6863 6.44467 10.403 5.86257 9.83629ZM1.99577 20.4012V12.8965C1.36377 12.2164 0.873149 11.4392 0.523889 10.5649C0.17463 9.69056 0 8.75956 0 7.77188C0 5.60223 0.77336 3.7645 2.32008 2.2587C3.8668 0.752901 5.75447 0 7.98307 0C10.2117 0 12.0993 0.752901 13.6461 2.2587C15.1928 3.7645 15.9661 5.60223 15.9661 7.77188C15.9661 8.75956 15.7915 9.69056 15.4423 10.5649C15.093 11.4392 14.6024 12.2164 13.9704 12.8965V20.4012L7.98307 18.4582L1.99577 20.4012ZM12.2241 11.9007C13.3883 10.7673 13.9704 9.39102 13.9704 7.77188C13.9704 6.15274 13.3883 4.77647 12.2241 3.64307C11.0599 2.50967 9.64621 1.94297 7.98307 1.94297C6.31993 1.94297 4.90626 2.50967 3.74207 3.64307C2.57787 4.77647 1.99577 6.15274 1.99577 7.77188C1.99577 9.39102 2.57787 10.7673 3.74207 11.9007C4.90626 13.0341 6.31993 13.6008 7.98307 13.6008C9.64621 13.6008 11.0599 13.0341 12.2241 11.9007Z" fill="white"/>
</svg>
