<svg width="16" height="21" viewBox="0 0 16 21" fill="none" xmlns="http://www.w3.org/2000/svg">
<path d="M7.98307 15.5438C8.51238 15.5438 9.02001 15.3391 9.39429 14.9747C9.76857 14.6103 9.97884 14.1161 9.97884 13.6008C9.97884 13.0855 9.76857 12.5913 9.39429 12.2269C9.02001 11.8625 8.51238 11.6578 7.98307 11.6578C7.45376 11.6578 6.94613 11.8625 6.57185 12.2269C6.19757 12.5913 5.9873 13.0855 5.9873 13.6008C5.9873 14.1161 6.19757 14.6103 6.57185 14.9747C6.94613 15.3391 7.45376 15.5438 7.98307 15.5438ZM13.9704 6.80039C14.4997 6.80039 15.0073 7.0051 15.3816 7.36948C15.7559 7.73386 15.9661 8.22806 15.9661 8.74336V18.4582C15.9661 18.9735 15.7559 19.4677 15.3816 19.8321C15.0073 20.1965 14.4997 20.4012 13.9704 20.4012H1.99577C1.46646 20.4012 0.958826 20.1965 0.584547 19.8321C0.210268 19.4677 0 18.9735 0 18.4582V8.74336C0 8.22806 0.210268 7.73386 0.584547 7.36948C0.958826 7.0051 1.46646 6.80039 1.99577 6.80039H2.99365V4.85742C2.99365 3.56916 3.51932 2.33365 4.45502 1.42271C5.39072 0.511763 6.6598 0 7.98307 0C8.63829 0 9.2871 0.125641 9.89244 0.369749C10.4978 0.613858 11.0478 0.971653 11.5111 1.42271C11.9744 1.87376 12.342 2.40924 12.5927 2.99857C12.8434 3.5879 12.9725 4.21954 12.9725 4.85742V6.80039H13.9704ZM7.98307 1.94297C7.18911 1.94297 6.42766 2.25003 5.86624 2.79659C5.30482 3.34316 4.98942 4.08446 4.98942 4.85742V6.80039H10.9767V4.85742C10.9767 4.08446 10.6613 3.34316 10.0999 2.79659C9.53849 2.25003 8.77704 1.94297 7.98307 1.94297Z" fill="white"/>
</svg>
